#!OML:ASF F:\VICON\USERDATA\INSTALL\rory3\rory3.ASF
:FULLY-SPECIFIED
:DEGREES
1338
root -1.06125 15.2844 -0.43494 -21.3456 29.3211 -2.31974
lowerback 17.1757 8.91863 -6.29427
upperback 12.4324 11.3025 -0.942934
thorax 3.01382 5.53409 0.78544
lowerneck 0.683437 -6.44107 -15.2137
upperneck 3.96368 -9.69311 25.2393
head 3.08942 -4.6621 10.2574
rclavicle -3.65764e-014 2.54444e-014
rhumerus 85.8753 11.0981 -59.0636
rradius 59.8816
rwrist -49.5732
rhand -32.9591 4.69653
rfingers 7.12502
rthumb -6.17475 -25.1935
lclavicle -3.65764e-014 2.54444e-014
lhumerus 74.6483 8.07042 38.2762
lradius 67.0766
lwrist 65.3696
lhand -19.4126 24.9318
lfingers 7.12502
lthumb 6.90688 54.7992
rfemur 12.66 -10.7411 20.6047
rtibia 34.9279
rfoot -24.9325 -24.3473
rtoes -0.146722
lfemur 2.24426 -15.9852 -16.0808
ltibia 32.8518
lfoot -10.6579 -7.12491
ltoes -10.2842
1339
root -1.03489 15.2936 -0.436619 -21.4668 29.5671 -2.69515
lowerback 16.8645 9.03606 -5.84361
upperback 12.3361 11.5293 -0.420095
thorax 3.01101 5.65472 1.08634
lowerneck 0.905015 -6.71125 -15.234
upperneck 4.45149 -10.1929 25.599
head 3.3188 -4.89385 10.366
rclavicle 2.78299e-015 1.59028e-014
rhumerus 85.1256 11.2915 -60.5241
rradius 60.1163
rwrist -49.4837
rhand -33.5927 5.0143
rfingers 7.12502
rthumb -6.78642 -24.8569
lclavicle 2.78299e-015 1.59028e-014
lhumerus 74.9424 7.73467 37.3278
lradius 67.0949
lwrist 65.2822
lhand -19.6088 25.0802
lfingers 7.12502
lthumb 6.71742 54.9537
rfemur 12.9682 -10.7212 20.9159
rtibia 34.3128
rfoot -24.757 -24.6164
rtoes 0.0184544
lfemur 2.07255 -16.196 -15.9148
ltibia 33.0091
lfoot -10.7263 -7.08139
ltoes -10.7564
1340
root -1.00878 15.3028 -0.438312 -21.6511 29.7987 -3.12619
lowerback 16.5611 9.1242 -5.39581
upperback 12.2306 11.7127 0.127392
thorax 2.99176 5.75284 1.41867
lowerneck 1.19605 -6.90953 -15.189
upperneck 4.83621 -10.5749 25.8658
head 3.47329 -5.07504 10.4404
rclavicle -2.94201e-014 4.45278e-014
rhumerus 84.3311 11.5609 -61.9557
rradius 60.5316
rwrist -49.5182
rhand -32.7784 5.37827
rfingers 7.12502
rthumb -6.00029 -24.5168
lclavicle -2.94201e-014 4.45278e-014
lhumerus 75.2141 7.42399 36.4588
lradius 67.1385
lwrist 65.1428
lhand -19.7231 25.5225
lfingers 7.12502
lthumb 6.60709 55.3994
rfemur 13.2924 -10.6755 21.2944
rtibia 33.7333
rfoot -24.6493 -24.9034
rtoes 0.284388
lfemur 1.95405 -16.4236 -15.7057
ltibia 33.1268
lfoot -10.7694 -6.93666
ltoes -11.3357
1341
root -0.984201 15.3123 -0.443107 -21.8789 30.0649 -3.60288
lowerback 16.4104 9.14337 -4.89896
upperback 12.0056 11.79 0.601499
thorax 2.79508 5.80698 1.63084
lowerneck 1.63976 -7.05068 -15.1973
upperneck 5.29403 -10.9117 26.2492
head 3.62216 -5.23859 10.5809
rclavicle -1.74931e-014 -1.43125e-014
rhumerus 83.3183 11.9547 -63.5886
rradius 61.0989
rwrist -49.5579
rhand -33.6256 5.64233
rfingers 7.12502
rthumb -6.8182 -24.2279
lclavicle -1.74931e-014 -1.43125e-014
lhumerus 75.4775 7.0735 35.6082
lradius 66.8631
lwrist 64.485
lhand -18.9066 25.814
lfingers 7.12502
lthumb 7.39532 55.6647
rfemur 13.6048 -10.5482 21.7645
rtibia 33.1629
rfoot -24.6842 -25.2127
rtoes 1.01213
lfemur 1.81673 -16.7097 -15.469
ltibia 33.2672
lfoot -10.7415 -6.89276
ltoes -11.3055
1342
root -0.961503 15.324 -0.450621 -21.8744 30.4006 -3.91124
lowerback 16.1811 9.14621 -4.60643
upperback 11.7006 11.8209 1.00438
thorax 2.53504 5.82837 1.88526
lowerneck 2.15877 -7.1535 -15.2785
upperneck 5.7155 -11.2011 26.6927
head 3.74621 -5.38533 10.7674
rclavicle -6.89783e-014 -9.54166e-015
rhumerus 82.3132 12.2997 -65.2687
rradius 61.4962
rwrist -49.5629
rhand -34.4466 5.97439
rfingers 7.12502
rthumb -7.61061 -23.8687
lclavicle -6.89783e-014 -9.54166e-015
lhumerus 75.7327 6.65875 34.8168
lradius 66.4015
lwrist 63.7023
lhand -17.836 25.6736
lfingers 7.12502
lthumb 8.42857 55.4854
rfemur 13.6994 -10.3135 22.156
rtibia 32.6395
rfoot -24.6456 -25.6796
rtoes 1.23709
lfemur 1.48311 -17.0615 -15.3775
ltibia 33.4138
lfoot -10.7097 -6.89097
ltoes -11.1541
1343
root -0.937894 15.3311 -0.460139 -21.9681 30.6594 -4.35407
lowerback 15.9821 9.17528 -4.19746
upperback 11.4659 11.9042 1.49986
thorax 2.33672 5.87909 2.16744
lowerneck 2.48035 -7.32019 -15.4322
upperneck 6.11052 -11.5639 27.1419
head 3.92351 -5.55733 10.9569
rclavicle -6.77856e-014 4.05521e-014
rhumerus 81.5273 12.3976 -66.7434
rradius 61.7972
rwrist -49.6337
rhand -34.8298 5.62034
rfingers 7.12502
rthumb -7.9805 -24.209
lclavicle -6.77856e-014 4.05521e-014
lhumerus 76.0839 6.24519 34.2163
lradius 66.1828
lwrist 63.5295
lhand -17.6308 25.7761
lfingers 7.12502
lthumb 8.62666 55.5798
rfemur 13.7584 -10.1021 22.6598
rtibia 32.2314
rfoot -24.626 -26.0925
rtoes 1.54316
lfemur 1.20723 -17.4149 -15.1533
ltibia 33.5142
lfoot -10.7312 -6.82338
ltoes -11.3714
1344
root -0.910197 15.3358 -0.472044 -21.9299 31.0805 -4.52679
lowerback 15.7932 9.14248 -3.99344
upperback 11.2162 11.882 1.84438
thorax 2.122 5.87104 2.41582
lowerneck 2.81902 -7.45511 -15.4379
upperneck 6.52594 -11.8828 27.5598
head 4.08425 -5.70343 11.1145
rclavicle -1.17283e-014 -2.70347e-014
rhumerus 80.7414 12.4773 -68.1278
rradius 62.1921
rwrist -49.9537
rhand -35.4115 6.10223
rfingers 7.12502
rthumb -8.54191 -23.705
lclavicle -1.17283e-014 -2.70347e-014
lhumerus 76.4192 5.93984 33.4566
lradius 66.0409
lwrist 63.6385
lhand -17.5126 26.1425
lfingers 7.12502
lthumb 8.74071 55.9415
rfemur 13.8052 -10.1398 22.7072
rtibia 31.9478
rfoot -24.7043 -26.2408
rtoes 2.24091
lfemur 0.967478 -17.8557 -15.2794
ltibia 33.546
lfoot -10.6943 -6.69974
ltoes -11.5886
1345
root -0.880598 15.3429 -0.48588 -21.4251 31.7589 -4.11795
lowerback 15.4174 9.06631 -4.34896
upperback 10.9179 11.7431 1.97529
thorax 1.9059 5.78197 2.77894
lowerneck 3.22781 -7.52445 -15.3327
upperneck 6.92893 -12.1063 27.9385
head 4.19713 -5.80459 11.2509
rclavicle 4.17448e-014 -2.62396e-014
rhumerus 79.94 12.5961 -69.2939
rradius 62.7331
rwrist -50.4142
rhand -36.4653 7.47189
rfingers 7.12502
rthumb -9.55881 -22.2913
lclavicle 4.17448e-014 -2.62396e-014
lhumerus 76.5835 5.63956 32.5878
lradius 65.8676
lwrist 63.5274
lhand -17.1561 25.9579
lfingers 7.12502
lthumb 9.08473 55.7422
rfemur 13.6852 -10.2929 22.0958
rtibia 31.7101
rfoot -24.7607 -26.3007
rtoes 2.81809
lfemur 0.545411 -18.3908 -16.0096
ltibia 33.5675
lfoot -10.5817 -6.50609
ltoes -11.5182
1346
root -0.853112 15.3521 -0.497719 -21.0934 32.2868 -3.93272
lowerback 15.1122 9.03305 -4.54205
upperback 10.6374 11.6787 2.24357
thorax 1.67072 5.73721 3.17654
lowerneck 3.51438 -7.63328 -15.4201
upperneck 7.3696 -12.3908 28.3
head 4.37157 -5.93119 11.4092
rclavicle 1.23445e-013 -4.77083e-014
rhumerus 79.2014 12.6006 -70.2815
rradius 63.208
rwrist -50.503
rhand -37.1485 8.04584
rfingers 7.12502
rthumb -10.2179 -21.686
lclavicle 1.23445e-013 -4.77083e-014
lhumerus 76.823 5.18304 32.0584
lradius 65.6702
lwrist 63.2655
lhand -16.7389 25.6411
lfingers 7.12502
lthumb 9.48729 55.4075
rfemur 13.6029 -10.2929 21.8154
rtibia 31.4712
rfoot -24.844 -26.4945
rtoes 3.33907
lfemur 0.209749 -18.8195 -16.446
ltibia 33.5773
lfoot -10.444 -6.49125
ltoes -11.2194
1347
root -0.827275 15.3598 -0.508795 -21.1395 32.5742 -4.31679
lowerback 14.9528 8.9698 -4.21553
upperback 10.3035 11.627 2.63875
thorax 1.36883 5.72241 3.4044
lowerneck 3.79319 -7.74846 -15.4791
upperneck 7.90225 -12.6961 28.5817
head 4.57341 -6.06271 11.5334
rclavicle -5.13858e-014 1.59028e-015
rhumerus 78.4345 12.6392 -71.6
rradius 63.5311
rwrist -50.1008
rhand -37.338 7.4892
rfingers 7.12502
rthumb -10.4007 -22.2336
lclavicle -5.13858e-014 1.59028e-015
lhumerus 77.1298 4.70784 31.6365
lradius 65.5191
lwrist 63.006
lhand -16.1672 25.7397
lfingers 7.12502
lthumb 10.0389 55.4803
rfemur 13.587 -10.1987 22.1773
rtibia 31.1862
rfoot -24.9673 -26.8133
rtoes 3.76965
lfemur -0.0569094 -19.1466 -16.2653
ltibia 33.6002
lfoot -10.3188 -6.60299
ltoes -11.1053
1348
root -0.801153 15.3691 -0.52034 -21.2601 32.7611 -4.78925
lowerback 14.8518 8.87524 -3.76154
upperback 9.92598 11.5469 2.98981
thorax 1.02678 5.69989 3.51275
lowerneck 4.18213 -7.86393 -15.5285
upperneck 8.49212 -13.0305 28.9424
head 4.78655 -6.21022 11.6955
rclavicle -1.5217e-013 2.82274e-014
rhumerus 77.6597 12.7439 -73.3682
rradius 63.6753
rwrist -49.4129
rhand -37.2863 6.79917
rfingers 7.12502
rthumb -10.3508 -22.9261
lclavicle -1.5217e-013 2.82274e-014
lhumerus 77.386 4.26304 31.0694
lradius 65.3703
lwrist 62.8617
lhand -15.7207 25.6975
lfingers 7.12502
lthumb 10.4696 55.4168
rfemur 13.6354 -10.0359 22.6586
rtibia 30.7891
rfoot -24.9815 -27.1811
rtoes 4.04609
lfemur -0.330799 -19.374 -15.9795
ltibia 33.6974
lfoot -10.3164 -6.69246
ltoes -11.5173
1349
root -0.775119 15.3796 -0.532709 -21.2964 32.9537 -5.1437
lowerback 14.6923 8.78622 -3.41072
upperback 9.58657 11.4686 3.31045
thorax 0.746473 5.67265 3.65673
lowerneck 4.61006 -7.97912 -15.5802
upperneck 8.98596 -13.3523 29.3167
head 4.96587 -6.35869 11.8675
rclavicle -1.10325e-014 -4.25399e-014
rhumerus 76.9468 12.7772 -74.8236
rradius 63.9869
rwrist -48.9711
rhand -37.659 6.47596
rfingers 7.12502
rthumb -10.7103 -23.231
lclavicle -1.10325e-014 -4.25399e-014
lhumerus 77.7286 3.88694 30.6189
lradius 65.1806
lwrist 62.6125
lhand -15.0167 25.5942
lfingers 7.12502
lthumb 11.1487 55.2781
rfemur 13.6842 -9.85291 23.0267
rtibia 30.3433
rfoot -24.9471 -27.5197
rtoes 4.35747
lfemur -0.643863 -19.6561 -15.8206
ltibia 33.8509
lfoot -10.4108 -6.71826
ltoes -11.9316
1350
root -0.748485 15.3875 -0.545499 -21.3724 33.0907 -5.56144
lowerback 14.4857 8.69449 -3.02688
upperback 9.2885 11.3959 3.67125
thorax 0.534242 5.64727 3.83516
lowerneck 4.75817 -8.04876 -15.5937
upperneck 9.54957 -13.5913 29.5757
head 5.18719 -6.44253 11.9847
rclavicle -1.04213e-013 6.75868e-015
rhumerus 76.3484 12.7578 -75.8078
rradius 64.4121
rwrist -48.8817
rhand -38.4784 6.45104
rfingers 7.12502
rthumb -11.5007 -23.2135
lclavicle -1.04213e-013 6.75868e-015
lhumerus 78.0488 3.62959 30.2296
lradius 65.0976
lwrist 62.4761
lhand -14.338 25.553
lfingers 7.12502
lthumb 11.8032 55.2004
rfemur 13.7414 -9.66358 23.4501
rtibia 29.9117
rfoot -24.8884 -27.8441
rtoes 4.47998
lfemur -0.933827 -19.9934 -15.6151
ltibia 34.0272
lfoot -10.5508 -6.61466
ltoes -12.2948
1351
root -0.720963 15.3963 -0.558862 -21.3986 33.1473 -6.00671
lowerback 14.2257 8.58467 -2.60628
upperback 8.95124 11.3043 4.0061
thorax 0.323468 5.61328 3.97514
lowerneck 4.66783 -8.07268 -15.4864
upperneck 10.2617 -13.7521 29.6072
head 5.45062 -6.46201 11.9882
rclavicle -2.84262e-014 -1.70955e-014
rhumerus 75.748 12.7392 -76.7947
rradius 64.8754
rwrist -48.8233
rhand -39.1375 6.23559
rfingers 7.12502
rthumb -12.1362 -23.3924
lclavicle -2.84262e-014 -1.70955e-014
lhumerus 78.2414 3.42152 29.7052
lradius 65.1437
lwrist 62.6397
lhand -14.0912 25.5082
lfingers 7.12502
lthumb 12.0412 55.1418
rfemur 13.734 -9.4296 23.9144
rtibia 29.5032
rfoot -24.9928 -27.9698
rtoes 5.18741
lfemur -1.27781 -20.3257 -15.3474
ltibia 34.2182
lfoot -10.6632 -6.41442
ltoes -12.5976
